# xmcd
#
# Track frame offsets: 
#        150
#        11943
#        24900
#        40940
#        55520
#        69078
#        85035
#        97578
#        109858
#        122803
#        136305
#        150175
#        164503
#        177578
#        191190
#        204490
#        216765
#        229488
#        240708
#        253863
#        268483
#        280428
#        293588
#        305478
#
# Disc length: 4245 seconds
#
# Revision: 2
# Processed by: cddbd v1.5.2PL0 Copyright (c) Steve Scherf et al.
# Submitted via: ExactAudioCopyFreeDBPlugin 1.0
#
DISCID=58109318
DTITLE=Various Artist - Deep South Blues Piano (1935-1937)
DYEAR=1994
DGENRE=Blues
TTITLE0=Harry Chatmon - Please Don't Do It No More
TTITLE1=Harry Chatmon - Letter from Texas
TTITLE2=Harry Chatmon - Hoo Doo Blues
TTITLE3=Harry Chatmon - Smoke-Stack Blues
TTITLE4=Harry Chatmon - Deep Blue Ocean Blues
TTITLE5=Harry Chatmon - These Jackson Women Will Not Treat You Right
TTITLE6=Harry Chatmon - Black Ants Blues
TTITLE7=Harry Chatmon - Quarrelin' Mama Blues
TTITLE8=Blind Mack - Rootin' Ground-Hog Blues
TTITLE9=Blind Mack - Keep Your Good Woman Home
TTITLE10=Kid Stormy Weather - Short Hair Blues
TTITLE11=Kid Stormy Weather - Bread and Water Blues
TTITLE12=Mack Rhinehart and Brownie Stubblefield - If I Leave Her Runn
TTITLE12=ing
TTITLE13=Mack Rhinehart and Brownie Stubblefield - Dirty No Gooder
TTITLE14=Mack Rhinehart and Brownie Stubblefield - Clay County Blues
TTITLE15=Mack Rhinehart and Brownie Stubblefield - Lonesome House Blue
TTITLE15=s
TTITLE16=Mack Rhinehart and Brownie Stubblefield - Lost Woman Blues
TTITLE17=Mack Rhinehart and Brownie Stubblefield - You Don't Know My M
TTITLE17=ind
TTITLE18=Mack Rhinehart and Brownie Stubblefield - Broke and Hungry
TTITLE19=Mack Rhinehart and Brownie Stubblefield - T. P. N. Moaner
TTITLE20=Mack Rhinehart and Brownie Stubblefield - I Can't Take It Any
TTITLE20=more
TTITLE21=Mack Rhinehart and Brownie Stubblefield - Uptown Blues
TTITLE22=Mack Rhinehart and Brownie Stubblefield - Blues After Sundown
TTITLE23=Mack Rhinehart and Brownie Stubblefield - Open Back Door Blue
TTITLE23=s
EXTD=YEAR: 1994
EXTT0=
EXTT1=
EXTT2=
EXTT3=
EXTT4=
EXTT5=
EXTT6=
EXTT7=
EXTT8=
EXTT9=
EXTT10=
EXTT11=
EXTT12=
EXTT13=
EXTT14=
EXTT15=
EXTT16=
EXTT17=
EXTT18=
EXTT19=
EXTT20=
EXTT21=
EXTT22=
EXTT23=
PLAYORDER=
